<?xml version="1.0" encoding="UTF-8" standalone="no"?>
<!DOCTYPE svg PUBLIC "-//W3C//DTD SVG 1.1//EN" "http://www.w3.org/Graphics/SVG/1.1/DTD/svg11.dtd">
<svg width="100%" height="100%" viewBox="0 0 961 147" version="1.1" xmlns="http://www.w3.org/2000/svg" xmlns:xlink="http://www.w3.org/1999/xlink" xml:space="preserve" xmlns:serif="http://www.serif.com/" style="fill-rule:evenodd;clip-rule:evenodd;stroke-linejoin:round;stroke-miterlimit:2;">
    <g transform="matrix(1,0,0,1,-219,-1234.84)">
        <g transform="matrix(1.14815,4.93038e-32,-2.46519e-32,0.674808,-24120.8,-23956.4)">
            <path d="M21199.2,37358.4L21199.2,37548.3L21922.1,37548.3L21199.2,37358.4" style="fill:rgb(34,101,127);"/>
        </g>
        <g transform="matrix(1.14815,4.93038e-32,-2.46519e-32,0.674808,-24120.8,-23974.9)">
            <path d="M21199.2,37358.4L21199.2,37375.8L21955.2,37574.7L22036.2,37575L21199.2,37358.4" style="fill:rgb(34,101,127);"/>
        </g>
        <g transform="matrix(2.54678,9.86076e-32,-9.86076e-32,2.21817,-54139.4,-83443.6)">
            <path d="M21343.9,38241.1L21343.9,38224.3L21426.4,38213.3L21487.7,38241.1L21343.9,38241.1Z" style="fill:rgb(245,146,30);"/>
        </g>
    </g>
</svg>
